<?xml version="1.0" encoding="UTF-8" standalone="no"?>
<!-- Created with Inkscape (http://www.inkscape.org/) -->

<svg
   xmlns:dc="http://purl.org/dc/elements/1.1/"
   xmlns:cc="http://creativecommons.org/ns#"
   xmlns:rdf="http://www.w3.org/1999/02/22-rdf-syntax-ns#"
   xmlns:svg="http://www.w3.org/2000/svg"
   xmlns="http://www.w3.org/2000/svg"
   xmlns:sodipodi="http://sodipodi.sourceforge.net/DTD/sodipodi-0.dtd"
   xmlns:inkscape="http://www.inkscape.org/namespaces/inkscape"
   width="539.15845mm"
   height="551.95557mm"
   viewBox="0 0 539.15845 551.95557"
   version="1.1"
   id="svg8"
   sodipodi:docname="globe.svg"
   inkscape:version="0.92.4 (5da689c313, 2019-01-14)">
  <defs
     id="defs2" />
  <sodipodi:namedview
     id="base"
     pagecolor="#ffffff"
     bordercolor="#666666"
     borderopacity="1.0"
     inkscape:pageopacity="0.0"
     inkscape:pageshadow="2"
     inkscape:zoom="0.35"
     inkscape:cx="532.10014"
     inkscape:cy="1056.3857"
     inkscape:document-units="mm"
     inkscape:current-layer="layer1"
     showgrid="false"
     fit-margin-top="0"
     fit-margin-left="0"
     fit-margin-right="0"
     fit-margin-bottom="0"
     inkscape:window-width="1920"
     inkscape:window-height="1001"
     inkscape:window-x="-9"
     inkscape:window-y="-9"
     inkscape:window-maximized="1" />
  <metadata
     id="metadata5">
    <rdf:RDF>
      <cc:Work
         rdf:about="">
        <dc:format>image/svg+xml</dc:format>
        <dc:type
           rdf:resource="http://purl.org/dc/dcmitype/StillImage" />
        <dc:title></dc:title>
      </cc:Work>
    </rdf:RDF>
  </metadata>
  <g
     inkscape:label="Layer 1"
     inkscape:groupmode="layer"
     id="layer1"
     transform="translate(170.64495,93.382074)">
    <g
       transform="matrix(0.35277777,0,0,-0.35277777,-253.9992,541.92777)"
       inkscape:label="ink_ext_XXXXXX"
       id="g18"
       style="stroke:#003ad4;stroke-opacity:1">
      <g
         transform="scale(0.139059)"
         id="g20"
         style="stroke:#003ad4;stroke-opacity:1">
        <path
           inkscape:connector-curvature="0"
           id="path24"
           style="fill:none;stroke:#003ad4;stroke-width:86.29340363;stroke-linecap:butt;stroke-linejoin:miter;stroke-miterlimit:2.61310005;stroke-dasharray:none;stroke-opacity:1"
           d="m 12170.8,4545.26 c 96.6,237.38 538.6,984.47 467.8,1456.35 -70.7,471.89 -123.1,331.16 -205.6,487.93 -82.4,156.76 -126.2,283.97 -84.6,391.48 41.7,107.44 168.9,195.17 155.7,234.65 -13.1,39.48 -166.6,30.71 -278.5,15.39 -111.8,-15.39 -182,-37.33 -230.3,-92.12 -48.2,-54.87 -74.6,-142.6 -160.1,-197.4 -85.5,-54.87 -230.3,-76.8 -392.6,-76.8 -162.3,0 -342.2,21.93 -458.4,87.73 -116.2,65.8 -168.9,175.47 -228.1,276.36 -59.2,100.89 -125,193.01 -197.4,282.9 -72.3,89.95 -151.3,177.69 -173.2,337.79 -21.9,160.11 13.2,392.59 30.7,579.01 17.6,186.43 17.6,326.8 39.5,471.54 21.9,144.77 65.8,293.9 177.6,482.51 111.8,188.62 291.8,416.72 405.7,572.42 114.1,155.7 162.3,239.1 221.6,261 59.2,21.9 129.4,-17.5 190.8,-52.6 61.4,-35.1 114,-65.82 175.4,-81.18 61.5,-15.36 131.6,-15.36 190.9,-24.14 59.2,-8.76 107.4,-26.29 142.5,-6.55 35.1,19.74 57,76.77 74.6,114.07 17.5,37.2 30.7,54.8 13.4,126.7 -17.4,71.8 -65.2,198 -133.1,266 -68.1,68 -156.2,77.8 -228.9,122.2 -72.5,44.3 -129.5,123.3 -147.2,198 -17.6,74.6 4.1,145 -11.3,209.4 -15.5,64.4 -68.2,122.7 -125.2,96.3 -56.9,-26.4 -118,-137.6 -131.1,-243.7 -13,-106 22.1,-206.9 8.9,-257.3 -13.2,-50.5 -74.6,-50.5 -142.5,-35.1 -68.1,15.3 -142.6,46 -188.7,30.7 -46.1,-15.4 -63.5,-76.8 -83.3,-144.8 -19.7,-68 -41.7,-142.5 -72.4,-206.1 -30.7,-63.6 -70.2,-116.3 -103.1,-166.7 -32.8,-50.5 -59.2,-98.72 -125,-107.5 -65.7,-8.76 -171,21.95 -228.1,96.5 -57,74.6 -65.8,193 -32.9,267.6 32.9,74.6 107.5,105.3 155.7,120.6 48.3,15.4 70.3,15.4 79,39.5 8.8,24.1 4.4,72.4 -30.7,140.4 -35.1,68 -100.9,155.7 -142.6,201.7 -41.6,46.1 -59.2,50.5 -87.7,35.1 -28.5,-15.3 -68,-50.4 -105.3,-35.1 -37.2,15.4 -72.3,81.2 -57,160.2 15.4,78.9 81.2,171 151.4,239 70.1,68 144.7,111.9 184.2,182 39.4,70.2 43.9,166.7 -19.8,274.2 -63.6,107.5 -195.1,225.9 -269.7,254.4 -74.6,28.5 -92.1,-32.9 -81.2,-94.3 11,-61.4 50.5,-122.8 70.2,-179.8 19.8,-57.1 19.8,-109.7 -46,-127.2 -65.8,-17.6 -197.44,-0.1 -269.86,15.3 -72.34,15.4 -85.5,28.5 -92.12,6.6 -6.54,-22 -6.54,-79 26.32,-129.4 32.94,-50.5 98.74,-94.3 146.99,-133.8 48.25,-39.5 78.96,-74.6 87.77,-122.8 8.7,-48.3 -4.42,-109.7 -39.52,-138.2 -35.09,-28.5 -92.12,-24.1 -153.53,-11 -61.41,13.2 -127.21,35.1 -199.63,83.4 -72.34,48.2 -151.3,122.8 -201.71,188.6 -50.48,65.8 -72.41,122.8 -68.03,171.1 4.39,48.2 35.09,87.7 76.81,92.1 41.63,4.4 94.27,-26.3 131.59,-43.9 37.25,-17.5 59.19,-21.9 72.35,4.4 13.16,26.3 17.54,83.4 15.38,142.6 -2.22,59.2 -11,120.6 -52.63,186.4 -41.71,65.8 -116.28,136 -175.47,203.9 -59.26,68 -103.12,133.9 -116.28,195.3 -13.16,61.4 4.39,118.4 20.13,169.6 15.75,51.3 29.63,96.8 -50.41,148.3 -395.29,254.4 -1468.86,370.7 -1927.95,370.7 -680.17,0 -1630.85,-259.8 -2233.81,-482.2 20.09,7.9 45.99,17.8 75.13,27.6 119.02,39.9 291.99,77.9 341.36,-27 25.14,-53.5 3.22,-128.1 3.22,-193.9 0,-65.8 21.94,-122.8 63.6,-153.5 41.68,-30.7 103.08,-35.1 162.3,-28.5 59.22,6.6 116.25,24.1 155.72,17.5 39.48,-6.6 61.41,-37.3 85.53,-35.1 24.13,2.2 50.45,37.3 111.86,87.8 61.41,50.4 157.91,116.2 225.91,151.3 67.98,35.1 107.47,39.5 72.37,-24.1 -35.1,-63.6 -144.75,-195.2 -225.9,-283 -81.16,-87.7 -133.79,-131.6 -157.91,-168.8 -24.14,-37.3 -19.74,-68 -35.09,-100.9 -15.36,-32.9 -50.44,-68 -127.2,-83.4 -76.77,-15.3 -195.2,-10.9 -289.51,-32.9 -94.31,-21.9 -164.49,-70.2 -203.97,-133.8 -39.48,-63.6 -48.26,-142.5 2.19,-228.1 50.44,-85.5 160.1,-177.6 276.34,-197.3 116.23,-19.8 239.07,32.9 307.06,76.7 67.99,43.9 81.14,79 87.73,120.6 6.57,41.7 6.57,90 20.47,151 13.89,61.1 41.67,134.9 52.64,213.9 10.96,78.9 5.12,163 19.74,235.7 14.61,72.8 49.71,134.2 82.61,193.4 32.89,59.2 63.6,116.2 103.07,166.7 39.49,50.4 87.73,94.3 135.99,140.3 48.24,46.1 96.5,94.4 151.33,129.4 54.82,35.2 116.23,57.1 188.61,74.6 72.37,17.6 155.73,30.7 217.13,17.6 61.41,-13.2 100.89,-52.7 131.6,-72.4 30.7,-19.8 52.63,-19.8 89.93,4.4 37.25,24.1 89.89,72.4 157.91,107.4 67.96,35.1 151.31,57.1 214.95,48.3 63.57,-8.8 107.44,-48.3 151.3,-83.3 43.87,-35.1 87.74,-65.8 125.06,-105.3 37.25,-39.5 67.95,-87.8 116.21,-129.4 48.25,-41.7 114.05,-76.8 171.07,-107.5 57.03,-30.7 105.28,-57 109.67,-116.2 4.39,-59.3 -35.09,-151.4 -41.71,-204 -6.55,-52.6 19.78,-65.8 78.96,-72.4 59.26,-6.6 151.37,-6.6 241.26,-2.2 89.97,4.4 177.7,13.2 232.5,-2.2 54.86,-15.3 76.8,-54.8 50.41,-94.3 -26.32,-39.4 -100.82,-78.9 -199.56,-78.9 -98.66,0 -221.49,39.5 -309.22,76.7 -87.73,37.3 -140.37,72.4 -188.63,87.8 -48.25,15.3 -92.12,10.9 -125.05,-11 -32.86,-21.9 -54.8,-61.4 -87.73,-98.7 -32.87,-37.3 -76.73,-72.4 -105.28,-131.6 -28.48,-59.2 -41.64,-142.6 -83.28,-193 -41.7,-50.4 -111.89,-68 -171.07,-59.2 -59.26,8.8 -107.51,43.8 -142.61,87.7 -35.09,43.9 -57.02,96.5 -72.34,153.5 -15.39,57.1 -24.16,118.5 -26.32,197.4 -2.23,79 2.16,175.5 -19.77,250.1 -21.94,74.5 -70.19,127.2 -133.77,164.4 -63.6,37.3 -142.55,59.3 -197.38,85.6 -54.84,26.3 -85.54,57 -111.86,83.3 -26.32,26.3 -48.26,48.3 -78.95,41.7 -30.71,-6.6 -70.19,-41.7 -100.89,-100.9 -30.71,-59.2 -52.64,-142.6 -28.52,-206.2 24.13,-63.6 94.32,-107.4 149.15,-142.5 54.82,-35.1 94.3,-61.4 105.27,-103.1 10.96,-41.7 -6.57,-98.7 -39.48,-157.9 -32.9,-59.2 -81.15,-120.6 -127.2,-162.3 -46.07,-41.7 -89.93,-63.6 -133.79,-61.4 -43.86,2.2 -87.74,28.5 -142.56,65.8 -54.83,37.3 -120.64,85.5 -175.45,120.6 -54.84,35.1 -98.72,57 -129.42,46.1 -30.7,-11 -48.23,-54.9 -35.07,-87.8 13.15,-32.9 57.01,-54.8 105.27,-76.7 48.25,-21.9 100.87,-43.9 138.16,-76.8 37.28,-32.9 59.23,-76.8 76.78,-114 17.54,-37.3 30.7,-68 65.79,-81.2 35.09,-13.1 92.1,-8.8 140.36,11 48.25,19.7 87.73,54.8 125.01,61.4 37.28,6.6 72.38,-15.4 92.12,-74.6 19.74,-59.2 24.12,-155.7 39.48,-221.5 15.33,-65.8 41.67,-100.9 98.69,-131.6 57.03,-30.7 144.75,-57 197.36,-109.7 52.64,-52.6 70.19,-131.5 52.64,-179.8 -17.54,-48.2 -70.15,-65.8 -63.58,-107.5 6.56,-41.6 72.36,-107.4 116.22,-164.5 43.87,-57 65.8,-105.2 2.23,-120.6 -63.64,-15.3 -212.75,2.2 -318.01,46.1 -105.29,43.8 -166.7,114 -190.82,168.9 -24.12,54.8 -10.97,94.3 -39.48,118.4 -28.52,24.1 -98.69,32.9 -140.37,15.3 -41.68,-17.5 -54.83,-61.4 -32.89,-105.2 21.92,-43.9 78.95,-87.8 125.02,-122.9 46.05,-35 81.12,-61.4 85.53,-94.3 4.38,-32.9 -21.95,-72.3 -81.16,-92.1 -59.22,-19.7 -151.33,-19.7 -230.29,-15.3 -78.95,4.4 -144.76,13.1 -201.77,-26.4 -57.02,-39.4 -105.28,-127.15 -138.17,-173.21 -32.91,-46.07 -50.45,-50.45 -98.69,-63.61 -48.27,-13.15 -127.22,-35.09 -197.4,-74.57 -70.18,-39.48 -131.6,-96.5 -162.29,-162.29 -30.71,-65.8 -30.71,-140.37 -59.22,-212.76 -28.52,-72.36 -85.54,-142.55 -166.69,-197.39 -81.15,-54.81 -186.44,-94.29 -258.8,-140.36 -72.38,-46.05 -111.86,-98.68 -131.6,-175.44 -19.74,-76.77 -19.74,-177.67 -19.74,-258.81 0,-81.16 0,-142.56 -30.7,-166.69 -30.71,-24.12 -92.12,-10.96 -131.6,54.82 -39.47,65.81 -57.02,184.24 -81.14,278.56 -24.15,94.31 -54.84,164.48 -105.27,203.96 -50.45,39.48 -120.64,48.26 -199.6,43.86 -78.95,-4.38 -166.67,-21.93 -243.45,-43.86 -76.76,-21.93 -142.56,-48.26 -203.97,-61.42 -61.42,-13.15 -118.42,-13.15 -188.6,-105.27 -70.18,-92.11 -153.54,-276.35 -193.02,-412.33 -39.48,-135.97 -35.07,-223.7 -26.3,-289.49 8.77,-65.8 21.92,-109.68 70.17,-131.61 48.25,-21.93 131.59,-21.93 217.14,6.58 85.53,28.52 173.25,85.55 239.06,133.78 65.79,48.27 109.65,87.75 155.72,81.16 46.05,-6.57 94.3,-59.21 111.84,-103.08 17.55,-43.86 4.4,-78.94 -26.31,-146.94 -30.72,-67.98 -78.95,-168.88 -105.27,-245.65 -26.33,-76.76 -30.71,-129.39 15.36,-146.94 46.04,-17.55 142.53,0 225.89,-4.38 83.34,-4.38 153.52,-30.72 186.42,-81.15 32.9,-50.45 28.5,-125.02 -10.97,-190.82 -39.48,-65.79 -114.04,-122.82 -131.59,-186.39 -17.54,-63.64 21.93,-133.83 54.84,-177.7 32.89,-43.86 59.21,-61.41 83.34,-78.95 24.11,-17.55 46.05,-35.1 85.53,-41.64 39.47,-6.62 96.5,-2.23 135.97,4.39 39.48,6.54 61.42,15.31 96.51,2.15 35.09,-13.16 83.34,-48.25 111.86,-81.11 28.5,-32.94 37.29,-63.65 74.57,-28.55 37.27,35.09 103.08,135.98 193.01,199.62 89.91,63.57 203.95,89.89 331.16,65.8 127.21,-24.16 267.59,-98.73 405.76,-122.82 138.17,-24.16 274.14,2.16 381.61,-28.55 107.47,-30.71 186.43,-118.44 276.35,-206.17 89.92,-87.73 190.82,-175.39 278.56,-214.94 87.68,-39.41 162.25,-30.71 232.44,-65.73 70.18,-35.1 135.99,-114.06 193.01,-214.95 57.03,-100.89 105.28,-223.71 160.08,-293.9 54.86,-70.19 116.28,-87.73 204.01,-92.12 87.73,-4.39 201.78,4.39 322.38,-4.39 120.67,-8.77 247.88,-35.09 353.16,-65.8 105.21,-30.7 188.62,-65.79 278.51,-96.5 89.96,-30.71 186.4,-57.03 252.2,-94.28 65.87,-37.32 100.89,-85.57 98.73,-179.85 -2.23,-94.35 -41.7,-234.72 -92.11,-342.16 -50.49,-107.5 -111.9,-182.08 -164.54,-296.13 -52.57,-114.05 -96.51,-267.51 -153.46,-434.2 -57.02,-166.69 -127.21,-346.54 -287.36,-432.12 -160.07,-85.5 -410.11,-76.73 -548.33,-190.78 -138.14,-114.05 -164.46,-350.93 -228.03,-480.3 -63.64,-129.44 -164.53,-151.37 -335.61,-239.11 -171.08,-87.73 -412.31,-241.26 -557.06,-401.34 -144.75,-160.07 -193.01,-326.76 -243.45,-410.11 -50.45,-83.34 -103.08,-83.34 -173.25,-59.25 -70.19,24.16 -157.93,72.41 -232.48,190.85 -74.57,118.44 -136,306.99 -188.63,511.01 -52.64,203.94 -96.5,423.27 -127.2,618.51 -30.71,195.17 -48.26,366.24 -63.62,506.62 -15.36,140.37 -28.5,250.03 -133.77,346.54 -105.28,96.51 -302.68,179.85 -486.9,298.29 -184.24,118.44 -355.3,271.9 -445.21,445.2 -89.94,173.24 -98.72,366.25 -57.03,550.49 41.66,184.24 133.77,359.7 195.18,500.07 61.41,140.38 92.12,245.65 105.29,344.32 13.14,98.73 8.76,190.78 -30.72,243.42 -39.48,52.64 -114.05,65.8 -186.41,87.73 -72.38,21.93 -142.57,52.64 -210.56,120.67 -67.99,67.96 -133.79,173.23 -179.84,256.58 -46.06,83.34 -72.38,144.76 -157.92,232.49 -85.52,87.73 -230.29,201.77 -324.58,282.93 -94.31,81.15 -138.19,129.4 -203.98,149.14 -65.79,19.74 -153.53,10.97 -274.16,92.12 -120.63,81.14 -274.16,252.21 -309.25,537.32 -35.1,285.13 48.26,684.31 87.74,1019.87 39.48,335.56 35.07,607.51 61.41,829.06 26.31,221.5 83.34,392.6 164.48,504.4 81.16,111.9 186.43,164.5 285.13,232.5 98.69,68 190.8,151.3 236.87,269.8 46.05,118.4 46.05,271.9 120.63,379.4 74.57,107.5 223.7,168.9 320.21,250 96.5,81.2 140.36,182.1 193.61,263.4 53.23,81.3 115.85,143 246.41,218.5 C 3034.17,11377 1742.28,9490.27 1742.28,7335 c 0,-3088.75 2503.94,-5592.72 5592.72,-5592.72 1845.62,0 3482.5,894.01 4501,2272.56 30.2,40.91 305.7,488.64 334.8,530.42 z" />
      </g>
    </g>
  </g>
</svg>
